<svg xmlns="http://www.w3.org/2000/svg" viewBox="0 0 200 60" width="120" height="40">
  <g>
    <!-- Apple logo -->
    <path d="M38 13c2.5-3 3.5-7 2.5-10.5-3.5 0.5-7.5 2.5-9.5 5.5-2 2.5-3.5 6.5-2.5 10 4 0.5 7.5-2 9.5-5z" fill="#333"/>
    <path d="M50 22c-6 0-10.5 3.5-12.5 3.5-2.5 0-7-3.5-11-3.5-6 0-11.5 3.5-14.5 9-6 10-1.5 25 4.5 32 2.5 4.5 5.5 9 9.5 9 3.5 0 4.5-2.5 9.5-2.5s6 2.5 9.5 2.5c3.5 0 7-4.5 9.5-9 3.5-4.5 4.5-9 4.5-9s-9-3.5-9-13.5c0-8 7-11.5 7-11.5s-3.5-4.5-9.5-4.5z" fill="#333"/>
 
    <!-- Apple text -->
    <text x="80" y="32" font-family="San Francisco Display, Arial, sans-serif" font-size="20" font-weight="300" fill="#333">Apple</text>
  </g>
</svg> 